<svg xmlns="http://www.w3.org/2000/svg" width="256px" height="256px">
  <symbol id="brainwash-icon">
    <path fill="currentColor" d="M176,41.875L15.75,96.625l58.88,27.042l21.62,90.458l3.5-4.75 l-1.101-84.128L176,41.875z M46,98.375l20.997-6.644l4.515,18.89L46,98.375z M98.082,81.896l31.668-10.021l-31.313,37.184 L98.082,81.896z M193.75,93.875l-12.5,117.25l22.75-14.5l25.5-133L193.75,93.875z M117.5,212.125l16.5-11.25l4.75-59.75l-21,17.5 L117.5,212.125z M146,212.375l22.25-15.75l10.25-90l-26.25,24L146,212.375z"/>
  </symbol>
  <symbol id="charm-icon">
    <path fill="currentColor" d="M219.074,93.554c-32.345,0-37.686,23.443-37.686,23.443 s-14.364-18.53-34.088-17.638c22.543-20.526,13.327-65.025-19.967-65.025C91,34.333,85,60.667,85,60.667S62.243,31.3,33.667,44 c-30,13.333-32,64.667,7.667,75.333C81,130,94,150.333,94,150.333s9.744-15.168,24.313-29.234 c-6.81,17.99-0.059,41.601,24.202,48.125c35.313,9.496,46.886,27.598,46.886,27.598s18.173-28.297,41.247-40.951 C258.245,140.736,251.42,93.554,219.074,93.554z M130.041,186.338c-14.94,0-17.408,10.828-17.408,10.828 s-9.358-12.076-21.109-6.854c-12.336,5.482-13.158,26.592,3.153,30.978c16.311,4.387,21.657,12.748,21.657,12.748 s8.395-13.071,19.053-18.916C148.135,208.132,144.981,186.338,130.041,186.338z"/>
  </symbol>
  <symbol id="distress-icon">
    <path fill="currentColor" d="M89.228,40.314c-25.414-15.248-48.116-1.017-61.331,43.033 c-13.214,44.05,4.405,138.248,4.405,138.248s19.653-48.793,50.148-91.826C112.947,86.736,114.641,55.562,89.228,40.314z  M235.333,78.923c-15.653-34.786-48.003-32.699-90.094,2.783c-42.09,35.481-81.746,125.228-81.746,125.228 s79.659-44.178,117.922-56.7C219.68,137.71,250.986,113.708,235.333,78.923z M148.82,185.224 c-23.637,8.114-64.559,35.631-64.559,35.631s50.78-3.975,67.028-2.822c17.233,1.223,41.275-9.525,38.101-24.342 S172.456,177.109,148.82,185.224z"/>
  </symbol>
  <symbol id="dizzy-icon">
    <path fill="currentColor" d="M226.4,74.306l-36.031-8.897l2.67-32.917l-24.466,17.793 l-23.576-27.58l-6.672,32.472l-20.017-2.669l9.341,30.693l-11.121,18.238l17.348,1.334c0,0-10.832,23.521-14.426,31.323 c-0.715,1.553-1.143,2.482-1.143,2.482l29.803-13.344l13.345,16.014l14.234-21.352l31.583,8.452l-4.894-35.142L226.4,74.306z  M87.835,146.201l2.105-25.96l-19.295,14.032l-18.594-21.751l-5.262,25.61l-15.787-2.105l7.367,24.207l-8.771,14.383l13.682,1.053 c0,0-8.543,18.551-11.377,24.705c-0.563,1.225-0.901,1.957-0.901,1.957l23.505-10.523l10.525,12.629l11.226-16.84l24.909,6.666 l-3.859-27.715l18.944-13.332L87.835,146.201z M178.838,179.088l1.718-21.191l-15.75,11.455l-15.178-17.756l-4.296,20.906 l-12.887-1.719l6.014,19.76l-7.159,11.742l11.168,0.859c0,0-6.974,15.143-9.287,20.166c-0.46,1-0.735,1.598-0.735,1.598 l19.187-8.59l8.592,10.309l9.164-13.746l20.332,5.441l-3.149-22.623l15.464-10.883L178.838,179.088z"/>
  </symbol>
  <symbol id="down-icon">
    <path fill="currentColor" d="M166.602,89.798c-29.334-32-79-23.667-90.667,13.333 c-11.667,37,8.667,61.333,33,67.333c24.333,6,44-9.667,51.333-30c7.334-20.333-6.666-43.667-26.333-49.667 c-19.667-6-33,7.333-39,22.333c-6,15,11.667,32,22,33.667c10.333,1.667,22.333-3.333,23-5.667c0.667-2.333-4-5-5.667-7 c-1.666-2-7.333,3.334-13,3c-5.667-0.333-15.667-4.666-15.667-16s11.333-20,21.333-20s25.667,9.333,24,28 c-1.667,18.666-18,32.666-35.667,32.333c-17.667-0.334-35.333-20.334-33-40c2.333-19.667,12.021-43.578,50.667-40 c36,3.333,42.333,47.333,31.333,74c-11,26.666-47.667,21.666-48,28.333c-0.333,6.667,0.333,5,2.333,6.333 c2,1.334,26.011-1.665,40.667-12C177.011,165.62,195.935,121.798,166.602,89.798z M187.602,54.464c1-2.333-5-8-9.667-7.333 c-4.667,0.667-18,28.667-16.333,32C163.268,82.464,186.602,56.798,187.602,54.464z M231.268,109.464 c-1.666-3.333-33-2.333-34.666,2.667c-1.667,5,31.333,10,34,8.667C233.268,119.464,232.935,112.798,231.268,109.464z  M177.935,168.465c-2,4,19.667,23,22.667,23s6.333-10,6-12.667C206.268,176.131,179.935,164.465,177.935,168.465z  M138.602,199.798c-3.667,0.333-3.334,33.667-1,36.333c2.333,2.667,8-2,10-4S142.268,199.465,138.602,199.798z M59.935,194.798 c0.333,3,13,8.667,16,8.333c3-0.333,16.333-27.666,13-30.333S59.601,191.798,59.935,194.798z M20.268,131.465 c-0.333,3.666-4.333,10,0.667,10s38-2.334,37.667-7C58.268,129.798,20.601,127.798,20.268,131.465z M70.601,79.798 c3-2.667-11.667-29.333-14.667-29.333s-7.667,4.333-8,8.667C47.601,63.464,67.601,82.464,70.601,79.798z M117.601,57.464 c3,0,4.667-26,3.333-28.333c-1.333-2.333-8-1.667-9.333,0.667C110.268,32.131,114.601,57.464,117.601,57.464z"/>
  </symbol>
  <symbol id="enervation-icon">
    <path fill="currentColor" d="M107.953,200.962l10.481-33.774L77.79,151.261l7.525-12.905 c0,0,38.977-22.312,33.013-54.291c-6.65-35.656-34.608-45.353-59.093-39.294c-28.158,6.967-33.572,32.342-28.574,52.542 c4.999,20.2,25.013,28.889,43.683,24.27c18.669-4.62,27.201-22.646,22.881-38.792S77.855,60.95,63.315,65.197 c-14.54,4.247-15.953,19.538-13.296,27.65c2.657,8.112,16.102,13.88,22.377,11.677s10.722-6.55,7.973-8.469 c-2.748-1.918-5.279,0.981-8.952,1.89c-3.672,0.909-12.769-0.413-14.893-7.683c-2.124-7.27-0.496-16.442,10.829-19.244 c11.325-2.802,20.484,4.026,22.832,13.514s-0.75,25.845-16.666,29.783c-15.916,3.938-31.339-5.887-35.589-19.127 c-4.25-13.239-1.292-35.409,24.724-41.846c26.015-6.438,40.943,11.302,46.418,31.388c7.049,25.864-28.712,46.73-28.712,46.73 l-13.974,23.596l40.489,16.615l-10.708,32.855l21.608,13.817l15.2,28.178l-9.225-32.904L107.953,200.962z M189.246,18.065 c-27.405-9.507-45.775,8.816-52.596,28.476c-6.82,19.66,5.224,37.854,23.394,44.158c18.171,6.303,35.149-4.159,40.328-20.05 c5.179-15.891-4.335-28.869-18.84-33.233c-14.505-4.365-24.024,7.685-26.219,15.934c-2.194,8.249,5.934,20.413,12.396,21.987 c6.463,1.574,12.56,0.352,11.302-2.754c-1.259-3.106-4.961-2.055-8.535-3.295c-3.575-1.24-10.48-7.307-8.299-14.559 c2.183-7.252,8.547-14.055,19.568-10.231s14.979,14.541,11.775,23.775c-3.203,9.234-14.717,21.259-30.206,15.885 S140.25,62.14,143.903,48.723s18.218-30.39,43.537-21.606c25.32,8.784,28.166,31.793,21.808,51.617 c-8.188,25.526-49.544,23.528-49.544,23.528l-24.577,12.165l24.889,36l-26.888,21.709l10.585,23.361l-2.615,31.909l10.201-32.614 l-6.347-19.222l27.197-22.604l-25.394-35.507l13.344-6.718c0,0,44.839,2.54,57.27-27.521 C231.229,49.701,213.076,26.332,189.246,18.065z"/>
  </symbol>
  <symbol id="exhaustion-icon">
    <path fill="currentColor" d="M123.504,148.137c-7.003-3.707-22.657,5.768-38.31,7.828 c-15.653,2.059-15.242,11.121-15.242,22.656c0,11.533,14.006,19.361,20.185,18.949c6.179-0.412,16.065-6.18,11.946-16.891 c-4.119-10.709-16.889-3.707-16.889-3.707s4.943-8.65,13.594-11.121c8.651-2.473,14.418,5.766,16.889,11.945 c2.472,6.18-5.767,26.363-11.122,29.66c-5.355,3.295-21.008,1.646-30.895-0.824c-9.886-2.473-15.653-19.773-18.125-25.541 c-2.472-5.766,1.236-16.477,7.415-31.307c6.179-14.83,34.191-12.77,46.961-16.477c12.77-3.707-2.884-11.123-7.827-19.773 c-4.943-8.651,2.472-6.179,4.943-18.125c2.472-11.946-11.534-9.475-20.185-11.534c-8.651-2.06-11.946-42.841-11.946-42.841 s-2.472,26.776-6.179,41.605c-2.705,10.82,8.239,14.006,9.887,19.361c1.647,5.355,0,16.478-0.412,22.656 c-0.412,6.179-17.713,8.239-26.364,10.298c-8.65,2.061-7.003,7.416-9.063,14.83c-2.06,7.416-10.298,11.947-16.065,22.656 c-5.767,10.711,6.591,18.125,12.358,25.953c5.767,7.826,1.648,18.125,9.475,30.482s23.48-0.412,31.307,0s14.006,6.59,25.128,5.355 c11.122-1.236,14.006-9.475,15.242-13.182c1.235-3.709,12.77-7.004,19.361-11.123s1.235-18.125-0.824-28.012 S130.507,151.846,123.504,148.137z M222.267,128.58c-1.642-7.882-6.567-23.973-12.149-26.928 c-5.583-2.955-18.062,4.598-30.54,6.24c-12.479,1.642-12.15,8.866-12.15,18.061c0,9.195,11.165,15.435,16.091,15.105 c4.926-0.328,12.808-4.926,9.523-13.463s-13.464-2.955-13.464-2.955s3.94-6.896,10.837-8.866 c6.896-1.97,11.493,4.598,13.464,9.523c1.97,4.925-4.598,21.017-8.866,23.644c-4.27,2.627-16.748,1.313-24.629-0.658 c-7.882-1.969-12.479-15.762-14.449-20.359c-1.971-4.598,0.985-13.135,5.911-24.957c4.926-11.822,27.256-10.18,37.436-13.136 c10.18-2.955-2.299-8.866-6.239-15.762s1.971-4.926,3.94-14.449c1.971-9.523-9.194-7.553-16.091-9.195 c-6.896-1.642-9.523-34.152-9.523-34.152s-1.97,21.345-4.926,33.167c-2.156,8.625,6.568,11.165,7.882,15.434 s0,13.135-0.328,18.061c-0.329,4.926-14.121,6.568-21.017,8.209c-6.896,1.642-5.583,5.911-7.225,11.822 c-1.642,5.911-8.21,9.523-12.807,18.061c-4.598,8.538,5.254,14.448,9.852,20.688c4.597,6.238,1.313,14.449,7.553,24.299 c6.239,9.852,18.718-0.328,24.957,0c6.239,0.33,11.165,5.256,20.031,4.27c8.866-0.984,11.165-7.553,12.15-10.508 c0.984-2.955,10.18-5.582,15.434-8.867C228.178,147.625,223.909,136.461,222.267,128.58z"/>
  </symbol>
  <symbol id="fear-icon">
    <path fill="currentColor" d="M207.649,130.059c0,0,26.2-41.07,8.852-72.936 s-48.86-51.692-83.912-29.741s-37.176,58.065-19.119,85.682c18.057,27.616,54.525,31.511,54.525,31.511l-6.373,18.058 l20.535,2.124L160.56,221.76l58.065-72.581l-17.349-0.354L207.649,130.059z M155.835,70.331 c-2.497,1.857-8.033-1.359-12.366-7.184c-4.334-5.825-5.823-12.052-3.327-13.909c2.497-1.857,8.033,1.359,12.367,7.184 C156.842,62.246,158.331,68.473,155.835,70.331z M166.97,47.387c-4.556-5.652-6.285-11.817-3.863-13.77 c2.423-1.953,8.08,1.046,12.636,6.699c4.557,5.652,6.286,11.817,3.863,13.77C177.184,56.038,171.526,53.039,166.97,47.387z  M193.924,99.429c-3.35,1.822-9.511-3.038-13.762-10.854c-4.251-7.816-4.98-15.629-1.631-17.451s9.511,3.038,13.762,10.854 C196.543,89.794,197.273,97.607,193.924,99.429z M85.072,105.342c-29.166-10.022-48.702,9.701-55.92,35.774 c-7.217,26.074,18.749,51.478,18.749,51.478l7.798,12.552l-12.541,3.188l54.432,42.907l-25.314-37.753l14.556-5.012l-7.679-12.037 c0,0,25.828-8.989,34.278-32.097S114.237,115.365,85.072,105.342z M60.857,157.821c-1.767,6.395-5.421,10.965-8.162,10.208 c-2.741-0.758-3.53-6.556-1.763-12.95c1.767-6.395,5.421-10.965,8.162-10.207C61.834,145.629,62.624,151.427,60.857,157.821z  M63.48,125.679c-2.354,4.875-5.957,8.009-8.046,7c-2.089-1.01-1.874-5.779,0.48-10.654c2.354-4.875,5.957-8.008,8.045-7 C66.05,116.035,65.835,120.804,63.48,125.679z M83.211,133.155c-2.164,4.962-5.641,8.233-7.768,7.307 c-2.126-0.928-2.097-5.702,0.066-10.664c2.163-4.963,5.641-8.234,7.768-7.307C85.404,123.418,85.375,128.192,83.211,133.155z"/>
  </symbol>
  <symbol id="hieroglyphein-icon">
    <path fill="currentColor" d="M224.064,81.537c-17.138-34.63-52.81-58.453-94.064-58.453 C72.057,23.084,25.084,70.057,25.084,128S72.057,232.916,130,232.916c25.383,0,48.66-9.015,66.806-24.017 c-11.991,6.562-25.749,10.296-40.382,10.296c-46.534,0-84.258-37.724-84.258-84.258c0-46.535,37.724-84.258,84.258-84.258 c23.092,0,43.999,9.302,59.215,24.35c-2.929-1.333-6.179-2.081-9.606-2.081c-12.831,0-23.231,10.401-23.231,23.231 c0,12.831,10.4,23.231,23.231,23.231c12.83,0,23.231-10.401,23.231-23.231C229.264,90.628,227.313,85.534,224.064,81.537z  M167.151,110.11c-15.793-19.766-17.158-57.597-17.158-57.597s-3.26,38.217-19.208,58.178 c-15.936,19.945-44.56,21.635-44.56,21.635s27.579,4.28,42.194,22.574c17.076,21.372,21.573,57.238,21.573,57.238 s2.265-36.181,18.743-56.805c15.366-19.233,45.024-23.008,45.024-23.008S183.24,130.248,167.151,110.11z"/>
  </symbol>
  <symbol id="mirage-icon">
    <path fill="currentColor" d="M129.427,0.329c-12.971,8.128-24.444,16.307-33.437,21.677 c-24,14.333-70.334,4-70.334,4s31.666,20.333,74.666,20c43.001-0.333,45.334-16.333,87.667-17 c31.156-0.491,56.696,12.552,68.021,19.478V0.329H129.427z M68.01,226.996c-30.832,0.484-56.168-12.285-67.666-19.262v48.262 h125.709c13.184-8.234,24.846-16.559,33.958-22c24-14.334,70.333-4,70.333-4s-31.667-20.334-74.667-20 C112.678,210.328,110.344,226.328,68.01,226.996z M95.99,164.006c-24,14.334-70.334,4-70.334,4s31.666,20.334,74.666,20 c43.001-0.334,45.334-16.334,87.667-17c31.156-0.49,56.696,12.552,68.021,19.478v-66.504c-12.137-4.046-30.926-8.641-53.688-8.641 C161.656,115.339,119.99,149.672,95.99,164.006z M160.011,91.995c24-14.333,70.333-4,70.333-4s-31.667-20.333-74.667-20 c-42.999,0.333-45.333,16.333-87.667,17C37.178,85.481,11.842,72.711,0.344,65.734v66.403c12.146,4.018,30.787,8.525,53.334,8.525 C94.344,140.662,136.011,106.329,160.011,91.995z"/>
  </symbol>
  <symbol id="mute-icon">
    <path fill="currentColor" d="M134.027,57.743C82.799,52.022,37.975,76.9,33.909,113.309 c-3.435,30.758,23.32,59.904,62.593,71.66l-9.836,36.365l36.271-31.394c49.697,4.178,92.517-20.371,96.486-55.916 C223.488,97.616,185.255,63.463,134.027,57.743z M79.333,137.334c-7.18,0-13-5.82-13-13.001c0-7.179,5.82-13,13-13s13,5.82,13,13 C92.333,131.514,86.512,137.334,79.333,137.334z M125.333,137.334c-7.18,0-13-5.82-13-13.001c0-7.179,5.82-13,13-13 c7.179,0,12.999,5.82,12.999,13C138.332,131.514,132.512,137.334,125.333,137.334z M171.332,137.334c-7.18,0-13-5.82-13-13.001 c0-7.179,5.82-13,13-13s13,5.82,13,13C184.332,131.514,178.512,137.334,171.332,137.334z"/>
  </symbol>
  <symbol id="rage-icon">
    <path fill="currentColor" d="M226.563,163.386c-5-27.333-26-16-26-16s-3-10-16-15 s-22,10.333-22,10.333s-11-4.666-32.333,7.667c-21.334,12.333-17.666,38.667-17.666,38.667l-53.667,29.666l48.333-0.666 c0,0-6.667,13.666,2,20.333c8.666,6.667,41.667-3,41.667-3s13.666,22,42.333,7.333c28.667-14.666,11.667-40.666,11.667-40.666 S231.563,190.719,226.563,163.386z M92.152,136.194c0,0,8.33,21.604,42.104-2.261s17.281-45.083,17.281-45.083 s27.685-6.112,22.998-37.607c-4.687-31.495-29.268-21.363-29.268-21.363s-0.511-13.983-17.097-15.555 c-16.586-1.571-22.395,10.6-22.395,10.6s-12.87-12.514-45.165,14.411c-32.296,26.925-2.508,42.302-2.508,42.302 s-16.367,16.618-18.49,35.067c-2.124,18.449,21.136,15.2,21.136,15.2l-21.228,57.806L92.152,136.194z"/>
  </symbol>
  <symbol id="sick-icon">
    <path fill="currentColor" d="M201.538,62.283c-25.015-29.049-88.357-25.014-123.054,20.173 C43.787,127.643,30.876,209.947,46.208,218.42c15.332,8.473,83.112-3.632,120.633-37.118 C204.361,147.815,226.552,91.332,201.538,62.283z M124.881,176.729c-5.461,4.794-43.573,28.241-59.173,13.18 c-6.026-5.819,14.516-63.323,26.359-70.471c15.601-9.414,36.26-3.378,42.094,1.883 C141.02,127.508,136.985,166.105,124.881,176.729z M138.599,90.524c-5.648,4.438-41.556,12.507-45.59,5.648 c-4.034-6.858,37.118-41.152,45.59-35.907C147.071,65.51,144.247,86.086,138.599,90.524z M171.278,138.132 c-7.665,0-18.559-35.907-8.876-42.766c9.684-6.859,30.26-17.349,33.487-6.859S178.944,138.132,171.278,138.132z"/>
  </symbol>
  <symbol id="sleep-icon">
    <path fill="currentColor" d="M143.369,139.647l3-11l-64.667,12.667L126.036,25.98 L34.703,44.314l-1.333,9L88.703,41.98L38.37,160.313L143.369,139.647z M227.965,100.496l-72.606-9.456l-3.529,7.686l43.841,5.157 l-67.699,77.473l82.986,10.408l6.257-8.76l-50.761-6.457L227.965,100.496z M115.861,162.198l-48.985,11.42l-2.671,10.537 l30.372-7.234l-20.719,58.432l53.228-13.299l2.418-8.842l-32.579,8.08L115.861,162.198z"/>
  </symbol>
  <symbol id="stone-icon">
    <path fill="currentColor" d="M194.75,58.25l-96.5-22.5l-69.5,71l27.75,96l96.75,22.5l68-71 L194.75,58.25z M200.25,150.75l-48.25-10l-2-7.25l-11.25-6l-7,6.5l-7.75-6.75l0.75-10.25l-6.5-15l-14-0.25l-3.75-14.5L112,76 l-9.25-32.25L188.5,63.5l23.95,87.7l-8.7-2.95L200.25,150.75z"/>
  </symbol>
  <style>
    use { display: none; }
    use:target { display: inline; }
  </style>
  <use id="brainwash" href="#brainwash-icon"/>
  <use id="charm" href="#charm-icon"/>
  <use id="distress" href="#distress-icon"/>
  <use id="dizzy" href="#dizzy-icon"/>
  <use id="down" href="#down-icon"/>
  <use id="enervation" href="#enervation-icon"/>
  <use id="exhaustion" href="#exhaustion-icon"/>
  <use id="fear" href="#fear-icon"/>
  <use id="hieroglyphein" href="#hieroglyphein-icon"/>
  <use id="mirage" href="#mirage-icon"/>
  <use id="mute" href="#mute-icon"/>
  <use id="rage" href="#rage-icon"/>
  <use id="sick" href="#sick-icon"/>
  <use id="sleep" href="#sleep-icon"/>
  <use id="stone" href="#stone-icon"/>
</svg>
