<svg xmlns="http://www.w3.org/2000/svg" width="256px" height="256px">
  <symbol id="sword-icon">
    <polygon fill="currentColor" points="233.865,23.304 179.722,28.144 71.379,165.598 52.053,141.555 33.805,144.318 36.789,164.025 59.225,179.248 22.134,215.15 24.842,233.031 42.725,230.324 75.581,194.301  96.117,222.984 115.094,220.109 112.385,202.227 88.792,182.822 223.489,80.499"/>
  </symbol>
  <symbol id="phys-icon">
    <path fill="currentColor" d="M53,243L7.25,165l29,17.5L19,103l36.25,52.25L64,49.75l20,85 L171,16.5l-54,137.25L221.5,97.5l-64.75,67.75l89.5-18.5L53,243z"/>
  </symbol>
  <symbol id="gun-icon">
    <path fill="currentColor" d="M203,104.25c3.25-9,28-17,28-17S209,85,207.5,71.5 s12.5-39,12.5-39S198.25,51,187,51s-29.75-25.5-29.75-25.5s3,29.75-0.75,37.75s-31-2-31-2s7.25,6.75,7.5,16s-9.5,13-9.5,13 s18-0.5,23.75,4.75c3.099,2.829,1.041,8.779-1.514,13.666c-7.064-1.766-13.751-4.29-18.486-7.916c-16-12.25-29-54.5-29-54.5 S94.5,98.25,83,107.5s-48.25-7.25-48.25-7.25S61.5,129,62.5,145.75S19,190.5,19,190.5s44.25-10.25,56.75-6.75s10,46.75,10,46.75 s24-30.5,37.75-31s38,27.75,38,27.75s-12.5-37.75-8-46s37.25-10.75,37.25-10.75s-29.25-13-30.75-24.75 c-0.944-7.397,7.82-18.557,14.444-25.813c1.544,0.127,2.998,0.234,4.306,0.313c12.5,0.75,37.75,34,37.75,34 S199.75,113.25,203,104.25z M123.08,169.785c-17.245,9.614-37.193,6.703-44.555-6.502c-7.362-13.206,0.65-31.704,17.896-41.318 c17.245-9.614,37.193-6.703,44.555,6.502C148.337,141.673,140.325,160.171,123.08,169.785z M186.414,93.159 c-8.859,7.691-20.816,8.427-26.706,1.643c-5.89-6.784-3.482-18.519,5.378-26.211c8.859-7.691,20.816-8.427,26.706-1.643 C197.682,73.732,195.274,85.467,186.414,93.159z"/>
  </symbol>
  <symbol id="fire-icon">
    <path fill="currentColor" d="M66.559,244.773c-12.333-4-39.667-56.666-30.667-70.334 c9-13.666,25.667-12.666,27.667-28c2-15.332-21-42.333-7.667-55.999c13.333-13.667,25-16.333,25-16.333s-8,33,3.333,33.333 c11.333,0.333,21.667-5.333,21.667-14.333s-13-24.667-4.333-30.333c8.667-5.667,12.667,10,18.667,8.667 c6-1.333,16-4.667,15.333-14.667s-14.667-17.333-11-26.333c3.666-9,27.333-19.667,27.333-19.667s-9.333,19-8.333,24.667 c1,5.667,5.667,9.333,10.667,9.667s27.333-12.667,33,5.667c5.666,18.333-0.667,23.333-10.334,25.333c-9.666,2-22.666,2.333-24.333,7 s5,27.333,0.333,33c-4.666,5.667-17,13-17,19s27.667,26,35,9.332c7.334-16.666,0-46.999,0-46.999s13,20,26.667,24.333 c13.667,4.333,28.333,12,23.333,28.666c-5,16.668-33.333,7-40.333,19.668c-7,12.666,6.98,11.785-1.667,31.666 C168.537,225.58,78.892,248.773,66.559,244.773z"/>
  </symbol>
  <symbol id="water-icon">
    <path fill="currentColor" d="M82.5,30.039c-7.095,0-41.409,72.174-41.409,95.044 c0,22.869,18.54,41.409,41.409,41.409s41.409-18.54,41.409-41.409C123.909,102.213,89.2,30.039,82.5,30.039z M74.525,144.933 c-5.475,8.838-18.566-1.326-21.674-15.841c-1.828-8.539,0.751-13.199,3.02-14.884c2.643-1.962,6.922-1.471,10.984,2.054 C73.555,122.072,79.57,136.79,74.525,144.933z M173.5,93.039c-7.095,0-41.409,72.174-41.409,95.044 c0,22.869,18.54,41.409,41.409,41.409s41.409-18.54,41.409-41.409C214.909,165.213,180.2,93.039,173.5,93.039z M165.526,207.933 c-5.475,8.838-18.566-1.326-21.674-15.841c-1.828-8.539,0.75-13.199,3.02-14.884c2.643-1.962,6.92-1.471,10.983,2.055 C164.555,185.073,170.57,199.79,165.526,207.933z"/>
  </symbol>
  <symbol id="ice-icon">
    <path fill="currentColor" d="M109.409,244.5c-4.5-0.25-25-17.5-25-23.75s25.5-21.75,25.5-21.75 v-8c0,0-20.25,9-22.75,8.5s-4.5-4.5-3.5-6.5s27.75-19.5,27.75-19.5l-29-20.5c0,0-7.5,29-9.25,29s-8.25-0.75-8.5-2.75 s1.75-22.5,1.75-22.5l-6,2c0,0-12.5,27.75-16.75,29.25s-20-7.75-25.25-16.5s2.5-27.25,7.25-28.5s30.5,8.75,30.5,8.75l5.75-4 c0,0-15.25-7-15.5-9s1.75-6.25,4.75-6S78.909,143,78.909,143l9.25-39.5c0,0-29,6.25-31.75,5.25s-3-5.75-1.5-7.5s21.25-6.5,21.25-6.5 l-8.75-6.25c0,0-31,3.25-32.75,2s0.25-32.25,3.75-37.25s29.75-1.75,32,0.75s5,27.75,5,27.75l8,6.5c0,0-1.5-22.75-0.25-24 s8-1.5,8.5,0.75s3.5,31.5,3.5,31.5l31.25-12.5c0,0-16-20.75-16-23s2.5-5,5.5-4s15,11.75,15,11.75l1-7c0,0-24.25-23.25-24.5-26.5 s28.75-24,34.25-23.75s26,28,26,32.25s-28.5,18.5-28.5,18.5l-1,7.5c0,0,19-13.5,22.25-11.75s4.75,5.5,3.25,6.75s-27,20-27,20 l29.25,17c0,0,15.5-31.25,17.75-31s7.5,2,6.5,4.25s-8.5,20.25-8.5,20.25l3.75,0.75c0,0,18.25-34,22.75-35s29.25,15,31,20.75 s-9.25,32.25-13.5,33.75s-34-13.75-34-13.75l-3.25,5c0,0,19,10.25,19.25,12.25s0.25,5.25-1.5,5.25S170.409,111,170.409,111 l-2.5,44.5c0,0,32.5-9,34-8.25s5.25,5.5,4.25,6.75s-28,10-28,10l6.75,7.75c0,0,31.75-12.25,34.5-12s13.25,36.5,9.75,41.75 s-39.25,14.5-42.25,13s-4-33.5-4-33.5l-8-6.75c0,0-0.5,16.25-1.5,18s-5.75,1.75-7-0.25s-6-28.75-6-28.75L123.659,175 c0,0,24.25,23.25,24,24.75s-3.5,7-5.25,7s-20.75-15.25-20.75-15.25l-1,9c0,0,23,24.25,22.75,26.5S113.909,244.75,109.409,244.5z"/>
  </symbol>
  <symbol id="elec-icon">
    <path fill="currentColor" d="M30.25,240.75l68.25-95.5L27.5,98L191,15.25L122.5,111l108.25,5.25 L30.25,240.75z"/>
  </symbol>
  <symbol id="force-icon">
    <path fill="currentColor" d="M201.888,33.472C162.913,1.585,96.692,18.058,53.979,70.265 C43.625,82.92,35.61,96.515,29.953,110.303c4.466-7.509,9.815-14.809,16.069-21.693c37.826-41.641,93.69-52.505,124.776-24.267 c31.086,28.238,25.622,84.886-12.203,126.526c-31.021,34.149-74.172,47.593-105.84,35.751 c39.471,26.204,101.615,8.923,142.364-40.883C237.831,133.53,240.861,65.358,201.888,33.472z M123.475,199.374 c38.028-26.629,58.176-73.591,45.001-104.893c-13.175-31.302-54.684-35.09-92.712-8.461 c-38.029,26.629-58.176,73.592-45.001,104.894S85.446,226.004,123.475,199.374z M120.154,157.064 c-13.07,7.048-25.299,3.493-27.314-7.938c-2.015-11.433,6.946-26.414,20.016-33.462s25.299-3.494,27.315,7.938 C142.186,135.035,133.225,150.017,120.154,157.064z M45.414,163.536c-5.235-23.743,12.185-55.891,38.907-71.803 c26.723-15.912,52.63-9.563,57.864,14.181c0.016,0.072,0.025,0.146,0.041,0.217c-7.652-8.237-21.952-9.684-37.433-2.415 c-21.562,10.125-37.25,33.323-35.04,51.813c2.21,18.491,21.481,25.272,43.043,15.147c0.382-0.18,0.757-0.372,1.136-0.56 c-3.347,2.805-6.905,5.366-10.655,7.599C76.556,193.629,50.649,187.28,45.414,163.536z"/>
  </symbol>
  <symbol id="wind-icon">
    <path fill="currentColor" d="M103.636,121.437c-40.202,7.962-28.971-40.41-28.971-40.41s-92.911,154.246-17.458,146.068 c128.233-13.899,171.124-207.11,171.124-207.11S167.791,108.73,103.636,121.437z M70.027,185.179 c-27.587,1.16-8.141-46.658-8.141-46.658s-0.554,23.097,20.288,21.073c34.729-3.373,73.335-30.83,73.335-30.83 S115.6,183.262,70.027,185.179z"/>
  </symbol>
  <symbol id="psy-icon">
    <path fill="currentColor" d="M103.774,97.18c-32.376,25.776-44.581,60.416-27.928,73.954 c15.695,12.761,48.543,1.402,72.773-19.862c24.221-21.257,36.64-49.261,27.921-64.737 C167.204,69.964,135.357,72.035,103.774,97.18z M142.214,143.771c-17.958,15.76-42.302,24.178-53.935,14.721 c-12.342-10.034-3.297-35.707,20.698-54.81c23.407-18.636,47.011-20.17,53.93-7.89 C169.369,107.262,160.165,128.018,142.214,143.771z M96.676,85.06c-47.029,37.442-64.758,87.759-40.568,107.425 c22.799,18.535,70.513,2.037,105.709-28.852c35.184-30.878,53.223-71.557,40.558-94.037 C188.814,45.527,142.553,48.536,96.676,85.06z M154.968,156.7c-29.468,25.861-69.417,39.675-88.504,24.156 c-20.253-16.466-5.41-58.593,33.965-89.941c38.41-30.581,77.142-33.099,88.495-12.947 C199.528,96.789,184.425,130.848,154.968,156.7z M231.228,54.312c-18.297-32.475-80.715-28.417-142.614,20.864 C25.159,125.695,1.239,193.585,33.877,220.12c30.761,25.009,95.141,2.748,142.628-38.929 C223.977,139.529,248.316,84.643,231.228,54.312z M167.336,168.252c-40.146,35.232-94.571,54.052-120.576,32.909 c-27.592-22.433-7.37-79.825,46.273-122.534c52.329-41.662,105.096-45.092,120.564-17.638 C228.044,86.631,207.468,133.031,167.336,168.252z M112.44,110.127c-16.801,13.376-23.134,31.351-14.493,38.376 c8.145,6.622,25.19,0.728,37.763-10.307c12.569-11.031,19.014-25.563,14.489-33.594C145.354,96.004,128.828,97.079,112.44,110.127 z"/>
  </symbol>
  <symbol id="earth-icon">
    <path fill="currentColor" d="M169.981,56.22l-26.999,17.475l51.496,12.23l-48.688,40.184 l33.395,6.116L83.06,189.879l38.699-52.705l-41.196-8.444l40.261-29.992L67.454,85.342l39.949-20.965 c0,0-25.477-5.895-36.406-8.157h-38.5v148.506h191.005V56.22H169.981z"/>
  </symbol>
  <symbol id="nuke-icon">
    <path fill="currentColor" d="M88.49,122.213l-53.483-0.162 C18.458,162.979,22.614,205.615,53,227.955l47.514-73.85c-2.266-0.547-4.408-1.471-6.358-2.807 C85.442,145.326,84.071,133.576,88.49,122.213z M105.386,101.282c14.511-9.815,28.442-7.544,34.803,0.697L200.455,33 c-26.413-13.729-65.078-11.939-104.949,15.028c-3.437,2.325-6.758,4.763-9.966,7.297l16.577,48.393 C103.163,102.868,104.25,102.051,105.386,101.282z M144.294,116.183c-0.193,5.887-2.216,12.462-6.458,18.958 c-5.892,9.02-14.784,15.625-23.68,18.283l15.761,82.74c31.345-10.125,62.401-33.66,83.166-65.451 c16.534-25.313,23.816-50.986,23.491-73.502L144.294,116.183z M127.967,129.922c4.875-7.463,4.849-15.121,1.466-19.604 c-3.745-4.965-12.065-6.362-20.733-0.5c-11.711,7.92-15.411,23.707-6.668,29.699C109.483,144.623,121.64,139.609,127.967,129.922z "/>
  </symbol>
  <symbol id="light-icon">
    <path fill="currentColor" d="M201.805,194.73c15.969-17.65,25.696-41.054,25.696-66.73 c0-25.704-9.747-49.129-25.746-66.786c10.327-14.993,19.331-25.826,19.331-25.826s-11.14,8.762-26.41,18.759 C177.032,38.208,153.65,28.5,128.001,28.5c-25.526,0-48.804,9.616-66.417,25.418c-15.065-9.901-25.998-18.53-25.998-18.53 s8.686,10.844,18.742,25.733C38.28,78.789,28.5,102.252,28.5,128c0,25.706,9.75,49.135,25.752,66.792 c-10.024,15.06-18.666,26.097-18.666,26.097s10.958-8.722,25.83-18.955c17.634,15.891,40.979,25.566,66.585,25.566 c26.26,0,50.139-10.178,67.921-26.798c14.754,10.757,25.164,20.187,25.164,20.187S212.111,209.86,201.805,194.73z  M200.999,127.997c0,16.086-5.215,30.948-14.03,43.013c-8.569-15.224-15.383-31.057-15.383-42.925 c0-12.254,6.763-28.11,15.287-43.234C195.748,96.939,200.999,111.852,200.999,127.997z M127.998,54.998 c15.845,0,30.498,5.064,42.465,13.64c-14.913,7.981-30.367,14.25-42.127,14.25c-11.921,0-27.537-6.364-42.549-14.43 C97.706,59.992,112.265,54.998,127.998,54.998z M54.998,127.997c0-16.133,5.244-31.035,14.105-43.118 c8.604,15.322,15.482,31.238,15.482,42.956c0,11.485-6.961,27.53-15.635,43.067C60.184,158.856,54.998,144.036,54.998,127.997z  M127.998,200.998c-16.138,0-31.045-5.247-43.13-14.114c15.964-9.401,32.391-17.079,43.468-17.079 c13.415,0,29.549,6.95,44.573,15.722C160.521,195.21,144.94,200.998,127.998,200.998z"/>
  </symbol>
  <symbol id="smt-dark-icon">
    <path fill="currentColor" d="M128,27.831C72.678,27.831,27.831,72.678,27.831,128 c0,55.322,44.847,100.169,100.169,100.169S228.169,183.322,228.169,128C228.169,72.678,183.322,27.831,128,27.831z  M128.003,63.954c14.386,0,26.047,11.661,26.047,26.046c0,14.385-11.661,26.046-26.047,26.046 c-14.384,0-26.045-11.661-26.045-26.046C101.958,75.615,113.619,63.954,128.003,63.954z M128.001,205.295 c-37.166,0-67.295-30.129-67.295-67.295c0-3.922,0.354-7.76,0.999-11.5c5.459,31.685,33.053,55.794,66.296,55.794 c33.244,0,60.838-24.109,66.297-55.794c0.645,3.74,0.999,7.578,0.999,11.5C195.297,175.166,165.168,205.295,128.001,205.295z"/>
  </symbol>
  <symbol id="skull-icon">
    <path fill="currentColor" d="M137.485,32.011c-60-4-104.667,25.333-109,86 c-4.333,60.667,41.333,70,41.333,72.333c0,2.334-17.667,13.668-18,20.334s14.667,13.334,19.333,13.334 c4.667,0,27.333-28.668,32.333-27c5,1.666-1.333,17-1.333,26.666s24,9.666,28.667,7.334c4.667-2.334,0.667-30.334,7-30.334 s19.333,28.334,27.667,32c8.333,3.666,18.059,0.281,19.333-5.666c2-9.334-11.333-22-10.667-25.668c0.667-3.666,47-3.666,53-56.332 C233.151,92.345,197.485,36.011,137.485,32.011z M100.176,154.307c-13.923,12.498-34.938,15.832-46.199,4.158 c-11.628-12.055-6.43-33.593,11.059-46.459c16.78-12.345,36.221-10.504,44.554,0.98 C117.741,124.22,113.695,142.17,100.176,154.307z M192.632,175.123c-14.128,7.971-33.314-1.227-43.087-17.182 c-9.489-15.492-8.239-33.85,2.781-42.287c11.267-8.625,30.424-4.836,42.978,11.787 C208.389,144.766,207.218,166.893,192.632,175.123z"/>
  </symbol>
  <symbol id="smt-almighty-icon">
    <path fill="currentColor" d="M111.333,244l-13.667-76.667l-43,15.334L77,145.333L14,114 l72.667-14.333l-14.333-43l36.667,27L142.666,16l14,71.667l41-14.667l-24.333,39.333L242,144.667l-74,12.666L179.333,199l-34-24.667 L111.333,244z"/>
  </symbol>
  <symbol id="per-almighty-icon">
    <path fill="currentColor" d="M260.167,179.106c0,0-81.136,26.879-138.017,1.896 c-34.101-14.977-12.984-63.896-12.984-63.896s-74.531,49.861-58.634,79.047c37.438,68.732,210.301,40.952,210.301,40.952 L260.167,179.106z M127.834,111.439c0,0,4.887,26.229,57.654,33.874c32.454,4.702,74.679-4.207,74.679-4.207l-0.334-57.333 c0,0-25.736,20.287-56.192,26.67C168.44,117.821,127.834,111.439,127.834,111.439z M209.077,45.59 c-6.922,24.403-61.91,49.849-61.91,49.849s105.866-24.878,104.562-52.045c-2.321-48.332-66.896-29.955-66.896-29.955 S216.268,20.244,209.077,45.59z M125.03,49.837c11.662,8.675,1.804,44.271,1.804,44.271s39.309-46.71,19.367-58.925 c-31.253-19.144-87.368,9.257-87.368,9.257S104.626,34.66,125.03,49.837z M39.044,103.45c28.55-9.919,64.122-5.343,64.122-5.343 s-23.389-16.904-54.07-18.521C20.027,78.056-9.167,92.773-9.167,92.773l1.333,47.333C-7.833,140.106,9.625,113.672,39.044,103.45z  M27.712,135.744C8.91,148.88-5.167,165.44-5.167,165.44l1.333,73.666c0,0,14.291-47.021,34.116-81.508 c15.46-26.894,45.218-44.159,45.218-44.159S45.374,123.404,27.712,135.744z"/>
  </symbol>
  <symbol id="per-ailment-icon">
    <path fill="currentColor" d="M229.69,116.369c-14.442-13.662-17.956,0.391-29.275-1.951 c-11.32-2.343-3.903-16.005-9.368-32.399c-5.465-16.394-22.25-7.026-31.618-21.859c-9.368-14.833,3.123-18.346,3.903-28.104 c0.78-9.759-2.342-16.785-16.785-16.785c-14.442,0-17.956,3.123-19.126,12.881c-1.172,9.759,5.074,17.175,8.196,30.057 c3.123,12.881-5.854,5.855-19.907,21.469c-14.052,15.614-8.732,25.599-19.908,37.474c-6.246,6.635-21.859-5.465-28.886-12.882 c-7.026-7.417-1.171-12.101-12.881-16.004c-11.71-3.903-14.833,9.759-17.175,15.614c-2.342,5.855-5.074,0.391-16.394,4.685 c-11.32,4.293-4.294,14.833,12.491,22.249c16.785,7.417,14.833,3.123,23.031-3.122c8.197-6.246,12.491-5.074,20.298,1.561 c7.807,6.637,1.952,12.102,0,16.396c-1.952,4.293-0.781,17.565-5.465,22.249c-4.685,4.685-16.004,0-26.153-3.122 c-10.149-3.123-10.93-4.685-21.859-0.781s-14.443,19.907-6.246,35.131s19.518,5.075,33.96,4.294 c14.443-0.78,2.342-5.074,8.198-11.71c5.855-6.636,8.197-12.882,20.688-16.785s18.737,12.101,32.008,16.785 c13.272,4.684,8.197-3.123,14.833-8.588s10.149,0.78,29.276,2.732s15.224-0.78,26.934-7.807s10.148-9.368,19.518-15.614 c9.368-6.245,1.561-8.587,5.074-17.175c3.513-8.588,7.807,0.391,12.101,7.026s14.833-1.562,21.469-6.636 C247.256,140.57,244.134,130.031,229.69,116.369z M120.394,210.833c-9.367,7.416,5.074,28.886,8.979,32.789 c3.903,3.903,21.859-1.171,30.447-6.246c8.587-5.074,0-15.224-2.343-26.153C155.135,200.293,129.763,203.416,120.394,210.833z"/>
  </symbol>
  <symbol id="smt-recovery-icon">
    <path fill="currentColor" d="M111.242,232.137l127.515-115.676l-29.765-66.294l-41.941-6.426 l-35.853,44.985l-23-53.441l-41.603-6.088L19.242,85.682L111.242,232.137z"/>
  </symbol>
  <symbol id="per-recovery-icon">
    <path fill="currentColor" d="M134.932,118.156c-18.443-20.162-24.847-65.844-24.847-65.844 s-9.14,46.007-27.464,65.84c-18.56,20.087-64.642,26.267-64.642,26.267s47.434,9.646,64.771,26.873 c17.952,17.837,27.335,65.233,27.335,65.233s8.413-47.815,26.028-65.596c16.278-16.431,66.078-26.511,66.078-26.511 S150.794,135.498,134.932,118.156z M203.013,53.747c-9.6-10.495-12.933-34.272-12.933-34.272s-4.758,23.946-14.296,34.27 c-9.66,10.456-33.646,13.672-33.646,13.672s24.689,5.021,33.713,13.987c9.344,9.285,14.229,33.955,14.229,33.955 s4.379-24.888,13.548-34.143c8.473-8.553,34.394-13.799,34.394-13.799S211.269,62.773,203.013,53.747z"/>
  </symbol>
  <symbol id="smt-support-icon">
    <path fill="currentColor" d="M180.85,147.875c-5.672,15.268-17.754,27.412-32.975,33.178v46.318 c39.932-8.012,71.37-39.514,79.249-79.496H180.85z M108.125,75.264V28.993c-39.914,7.902-71.39,39.264-79.419,79.132h46.357 C80.829,92.969,92.927,80.939,108.125,75.264z M74.901,147.875H28.626c7.895,40.064,39.448,71.617,79.499,79.547V181.15 C92.787,175.424,80.603,163.227,74.901,147.875z M180.688,108.125h46.356c-8.013-39.785-39.374-71.098-79.169-79.082V75.36 C162.955,81.075,174.953,93.053,180.688,108.125z"/>
    <path fill="white" d="M164.539,127.998c0-20.25-16.415-36.665-36.664-36.665s-36.664,16.415-36.664,36.665 c0,20.248,16.415,36.663,36.664,36.663S164.539,148.246,164.539,127.998z"/>
  </symbol>
  <symbol id="per-support-icon">
    <path fill="currentColor" d="M28.168,28.922v201.833h201.833V28.922H28.168z M211.01,128.764 h-49.512v33.488H130.01v47.512H49.17v-80.84h47.523V97.447h33.004v31.697h31.793V97.352h-31.32V47.924h80.84V128.764z M96.697,162.244h32.894v-32.894H96.697V162.244z"/>
  </symbol>
  <symbol id="smt-special-icon">
    <path fill="currentColor" d="M214.893,113.214c-7.111,0-13.046,5.022-14.461,11.712 l-51.379-5.876l32.031-40.305c5.76,3.958,13.694,3.388,18.813-1.732c5.774-5.774,5.774-15.136,0-20.911s-15.137-5.774-20.911,0 c-5.027,5.029-5.673,12.776-1.943,18.507l-40.485,32.175l-5.851-51.15c6.872-1.273,12.079-7.287,12.079-14.527 c0-8.167-6.62-14.786-14.786-14.786s-14.786,6.62-14.786,14.786c0,7.111,5.022,13.045,11.712,14.461l-5.826,50.942L78.958,74.609 c3.729-5.731,3.083-13.479-1.944-18.507c-5.775-5.774-15.137-5.774-20.911,0s-5.774,15.136,0,20.911 c5.119,5.119,13.053,5.69,18.813,1.732l32.031,40.304l-51.378,5.876c-1.416-6.689-7.35-11.711-14.461-11.711 c-8.166,0-14.785,6.62-14.785,14.786s6.619,14.786,14.785,14.786c7.24,0,13.254-5.207,14.527-12.078l51.149,5.85L74.61,177.042 c-5.732-3.729-13.479-3.083-18.508,1.944c-5.774,5.774-5.774,15.137,0,20.911s15.136,5.774,20.911,0 c5.118-5.119,5.688-13.054,1.732-18.813l40.303-32.031l5.876,51.378c-6.689,1.416-11.711,7.35-11.711,14.461 c0,8.166,6.62,14.786,14.786,14.786s14.786-6.62,14.786-14.786c0-7.24-5.207-13.254-12.078-14.527l5.899-51.585l40.647,32.304 c-3.957,5.76-3.388,13.694,1.731,18.813c5.774,5.774,15.137,5.774,20.911,0s5.774-15.137,0-20.911 c-5.028-5.027-12.776-5.673-18.508-1.944l-32.174-40.484l51.149-5.851c1.273,6.871,7.287,12.079,14.527,12.079 c8.166,0,14.786-6.62,14.786-14.786S223.059,113.214,214.893,113.214z"/>
  </symbol>
  <symbol id="smt-sabbath-icon">
    <path fill="currentColor"  d="M247.229,153.034l-54.367-8.851l33.885-36.919l-68.275,16.942 l52.598-83.195l-55.632,44.758l-2.022-59.172l-25.541,84.206l-26.046-82.436l-0.758,63.471L44.426,45.311l52.598,77.884 L29,103.219l35.655,40.459L8.771,153.793l65.747,24.781l-20.482,45.265l57.655-26.299l20.23,31.861l22.252-26.552l52.345,16.689 l-15.172-40.712L247.229,153.034z M143.875,178.583l-11.167,24.834l-16-29.167l-40.667,22.167l19.5-26.667l-33.5-13l33.333-4.333 l-28.667-28.5l39.833,12.667l14.5,23.5h14l13.166-21l39.834-9.667l-30.834,24.834l40.167,7l-32,10.333l19.167,25.167 L143.875,178.583z"/>
  </symbol>
  <symbol id="smt-passive-icon">
    <path fill="currentColor" d="M227.995,140.333c-0.334-6,0.322-50.29-36.667-49.333 c-38.667,1-29.333,36.667-50.333,76c-21,39.333-95.333,9.333-95.333,9.333S59.994,223.631,141.995,222 C218.985,220.469,228.328,146.333,227.995,140.333z"/>
    <path fill="orange" d="M114.005,34c-76.991,1.531-86.333,75.667-86,81.667 c0.333,6-0.323,50.291,36.667,49.333c38.667-1,29.333-36.667,50.333-76c21-39.333,95.333-9.333,95.333-9.333 S196.006,32.37,114.005,34z"/>
  </symbol>
  <symbol id="per-passive-icon">
    <path fill="currentColor" d="M86.297,129.381l30.482-105.608L10.692,54.735L39.026,82.71 c-6.659,13.327-10.412,28.358-10.412,44.27c0,45.956,31.251,84.607,73.66,95.878l2.614-22.737 c-31.121-9.748-53.703-38.806-53.703-73.141c0-9.624,1.775-18.831,5.015-27.314L86.297,129.381z M170.543,126.26l-30.482,105.607 l106.088-30.962l-29.709-29.332c6.762-13.407,10.585-28.55,10.585-44.593c0-45.157-30.173-83.261-71.455-95.266l-2.628,22.865 c29.98,10.402,51.513,38.878,51.513,72.4c0,9.758-1.835,19.083-5.161,27.665L170.543,126.26z"/>
  </symbol>
  <symbol id="forget-icon">
    <path fill="currentColor" d="M89.324,104.815c0,0,4.851-22.856,21.353-23.736 c14.548-0.776,21.176,5.654,17.857,17.045c-3.32,11.392-22.011,19.927-26.207,27.607c-7.481,13.692,3.11,31.944,3.11,31.944 l31.835-3.986c0,0,2.077-18.948,10.509-25.048c8.433-6.099,41.176-26.515,25.65-67.584 c-15.713-41.563-86.589-36.501-112.413-9.357c-25.952,27.278-18.059,57.141-18.059,57.141L89.324,104.815z M138.734,162.999 l-29.426,4.278l8.695,24.423l23.657-2.963L138.734,162.999z M194.396,130.077c-26.564-4.615-41.216,11.957-41.216,11.957 l20.829,26.018c0,0,15.543-6.195,22.627,3.284c6.245,8.357,5.05,14.861-3.056,17.412s-20.619-5.189-26.862-4.637 c-11.13,0.986-17.792,14.551-17.792,14.551l15.029,17.379c0,0,12.113-6.295,19.098-3.697c6.984,2.599,32.162,13.988,50.454-11.585 C252.021,174.877,220.831,134.67,194.396,130.077z M133.655,219.673l11.169,12.914l14.168-11.975l-14.245-15.827L133.655,219.673z  M84.435,164.773c1.006-5.808,6.204-27.033-16.332-37.541C45.295,116.6,18.567,146.684,18.835,167.9 c0.269,21.321,15.279,30.305,15.279,30.305l17.202-19.971c0,0-7.073-11.183-0.732-18.066c5.59-6.068,10.82-6.083,13.98-0.152 s-1.041,16.783,0.295,21.556c2.383,8.509,13.895,11.719,13.895,11.719l11.328-14.207C90.082,179.083,83.429,170.58,84.435,164.773 z M84.121,195.65l13.184,6.461l8.417-10.558l-11.366-9.275L84.121,195.65z"/>
  </symbol>
  <symbol id="poison-icon">
    <path fill="currentColor" d="M160.75,205.5c-9.596,0-17.375,7.779-17.375,17.375 s7.779,17.375,17.375,17.375s17.375-7.779,17.375-17.375S170.346,205.5,160.75,205.5z M226.75,73.625 c0-16.845-13.655-30.5-30.5-30.5c-15.086,0-27.604,10.955-30.057,25.341c-0.975-0.056-1.955-0.091-2.943-0.091 c-19.332,0-36.136,10.812-44.705,26.716c-0.934-0.958-2.114-1.67-3.438-2.043c2.02-5.083,3.143-10.62,3.143-16.423 c0-24.577-19.923-44.5-44.5-44.5c-6.555,0-12.772,1.429-18.375,3.974c-1.463-4.9-5.999-8.474-11.375-8.474 c-6.559,0-11.875,5.316-11.875,11.875c0,4.451,2.453,8.325,6.077,10.358c-5.618,7.449-8.952,16.718-8.952,26.767 c0,15.867,8.312,29.786,20.812,37.664c-0.984,1.497-1.562,3.286-1.562,5.211c0,5.247,4.253,9.5,9.5,9.5 c4.85,0,8.843-3.637,9.421-8.331c2.068,0.295,4.18,0.456,6.329,0.456c13.417,0,25.437-5.946,33.596-15.336 c1.414,1.511,3.421,2.461,5.654,2.461c0.232,0,0.461-0.015,0.688-0.035c-0.771,3.516-1.188,7.163-1.188,10.91 c0,9.255,2.483,17.928,6.813,25.397c-5.099,0.194-9.329,3.736-10.562,8.497c-5.832-5.805-13.872-9.395-22.751-9.395 c-17.811,0-32.25,14.438-32.25,32.25s14.439,32.25,32.25,32.25s32.25-14.438,32.25-32.25c0-3.118-0.451-6.129-1.277-8.98 c0.89,0.224,1.817,0.355,2.777,0.355c5.485,0,10.062-3.883,11.136-9.049c2.671,2.214,5.569,4.162,8.66,5.798 c-0.179,1.102-0.296,2.224-0.296,3.376c0,11.598,9.402,21,21,21s21-9.402,21-21c0-0.264-0.029-0.52-0.039-0.781 C200.372,159.34,214,140.828,214,119.125c0-6.542-1.252-12.788-3.506-18.531C220.161,95.478,226.75,85.323,226.75,73.625z  M64,77.125c-8.629,0-15.625-6.996-15.625-15.625S55.371,45.875,64,45.875S79.625,52.871,79.625,61.5S72.629,77.125,64,77.125z  M79,178.5c-6.075,0-11-4.925-11-11s4.925-11,11-11s11,4.925,11,11S85.075,178.5,79,178.5z M153,117.125 c-8.63,0-15.625-6.996-15.625-15.625S144.37,85.875,153,85.875c8.629,0,15.625,6.996,15.625,15.625S161.629,117.125,153,117.125z"/>
  </symbol>
  <symbol id="panic-icon">
    <path fill="currentColor" d="M233.297,130.417l2.5-14.75l-13.5,7l-12-5l4.5,13.5l-7.422,7.775 c-0.023-0.293-0.046-0.585-0.078-0.875c-1.264-11.374-7.6-17.2-7.6-17.2s23.6-25.2,19.6-55.6s-51-39-114.2-7 c-18.91,9.575-33.841,20.563-45.428,31.36l-6.906-6.519l6.874-19.5l-20.591,11.25L19.21,65.197l4.301,22.01l-12.057,14.906 l20.972-0.764l6.622,11.478c-11.062,15.332-14.801,27.122-13.751,28.84c2.2,3.6,20.2,8,22,8s17.4-36.2,53-62.2 c35.6-26,87.4-40.6,99.8-23.8c12.4,16.8-19.399,52.4-19.399,52.4s-18.601-3-49.2,12c-30.6,15-56.4,37.399-51.8,51.199 c4.6,13.801,17.4,16.4,56.4-5c39-21.399,51.2-41.199,51.2-41.199s2.2,5.399,2.6,12.8c0.4,7.399-5,16-5,16s-9-0.601-18.399,1.2 c-9.4,1.8-48.6,17-36.601,38.199c12,21.2,58.801-17.399,58.801-17.399s-3,11.8-7,20.8s-18.2,18.8-15,22.8 c0.219,0.273,13.248,4.526,31-23.6c15.399-24.4,3.8-38.2,3.8-38.2s5.825-12.143,5.975-23.754l9.325-0.746l7,13l6.75-13.25l14,0.75 L233.297,130.417z M100.897,171.067c-4.842-8.577,54.646-38.394,57.2-34.2C160.435,140.706,106.274,180.593,100.897,171.067z  M149.053,190.073c-2.608-3.994,16.37-14.034,17.975-12.038C168.632,180.032,151.661,194.068,149.053,190.073z"/>
  </symbol>
  <symbol id="paralyze-icon">
    <path fill="currentColor" d="M128.501,163l-43.667-20.667l29-37l-41.667-22L101.5,47.667 l-37.333,6L32.833,91L73.5,114.333L44.167,151l42.667,20L54.5,208l45.667,21.333l39-6.666L96.5,200.333L128.501,163z  M180.5,184.333l32-37.333l-43.666-20.666l29-37l-41.667-22L185.5,31.667l-37.333,6L116.833,75L157.5,98.333L128.167,135 l42.667,20L138.5,192l45.667,21.333l39-6.666L180.5,184.333z"/>
  </symbol>
  <symbol id="bind-icon">
    <path fill="currentColor" d="M229.321,84.239l27.356,7.903V77.84l-35.511-10.259 c-5.358-1.548-10.956,1.541-12.504,6.898l-2.971,10.285l-33.306-9.622l2.971-10.285c1.548-5.358-1.54-10.956-6.897-12.503 l-62.731-18.122c-5.357-1.548-10.955,1.541-12.504,6.898l-2.971,10.285l-33.306-9.621l2.972-10.285 c1.547-5.358-1.541-10.956-6.898-12.503L0.378,3.798v14.303l36.866,10.65c3.314,0.958,5.293,4.18,4.421,7.199l-0.393,1.359 c-4.748-1.118-8.738-0.793-9.215,0.858l-4.021,13.92c-0.477,1.651,2.725,4.053,7.338,5.64l-0.393,1.359 c-0.872,3.018-4.265,4.689-7.579,3.731L0.378,55.009v14.303l35.175,10.162c5.357,1.548,10.955-1.541,12.503-6.898l2.971-10.285 l33.305,9.622l-2.971,10.285c-1.547,5.358,1.541,10.956,6.898,12.503l62.731,18.122c5.357,1.547,10.955-1.541,12.503-6.898 l2.971-10.285l33.306,9.622l-2.971,10.285c-1.548,5.357,1.541,10.955,6.898,12.504l52.979,15.304v-14.303l-37.198-10.746 c-3.313-0.957-5.293-4.18-4.421-7.198l0.384-1.328c5.167,1.404,9.681,1.153,10.19-0.61l4.021-13.92 c0.509-1.763-3.175-4.382-8.295-5.95l0.384-1.328C222.614,84.953,226.007,83.282,229.321,84.239z M157.104,69.297l-0.393,1.359 c-4.749-1.118-8.738-0.793-9.216,0.858l-4.021,13.92c-0.478,1.651,2.725,4.053,7.338,5.64l-0.393,1.359 c-0.872,3.018-4.266,4.689-7.579,3.731l-38.8-11.208c-3.313-0.957-5.293-4.18-4.42-7.198l0.384-1.328 c5.167,1.404,9.681,1.153,10.189-0.61l4.021-13.92c0.51-1.763-3.175-4.382-8.294-5.95l0.384-1.328 c0.871-3.019,4.265-4.689,7.578-3.732l38.799,11.208C155.996,63.057,157.975,66.279,157.104,69.297z M229.096,148.602 c-1.428-5.391-6.956-8.604-12.347-7.174l-63.118,16.725c-5.391,1.428-8.603,6.955-7.174,12.346l2.742,10.35l-33.512,8.879 l-2.742-10.348c-1.428-5.391-6.955-8.604-12.346-7.174L37.481,188.93c-5.391,1.428-8.603,6.955-7.174,12.346l2.742,10.35 l-32.671,8.656v22.072l38.136-10.105l2.742,10.348c1.428,5.391,6.956,8.602,12.347,7.174l63.118-16.725 c5.391-1.428,8.603-6.957,7.174-12.348l-2.742-10.348l33.511-8.879l2.742,10.348c1.429,5.391,6.957,8.602,12.348,7.174 l63.118-16.725c5.39-1.428,8.603-6.957,7.174-12.348l-2.742-10.348l19.375-5.135v-22.07l-24.84,6.582L229.096,148.602z  M101.163,222.953l-39.038,10.344c-3.334,0.883-6.689-0.861-7.494-3.898l-0.352-1.328l0.512-0.137 c5.393-1.428,9.371-4.068,8.887-5.895l-3.711-14.006c-0.484-1.828-5.248-2.15-10.641-0.723l-0.512,0.137l-0.352-1.328 c-0.805-3.037,1.246-6.215,4.58-7.098l39.038-10.346c3.335-0.883,6.689,0.863,7.494,3.9l0.362,1.367 c-4.646,1.484-7.9,3.814-7.461,5.475l3.712,14.006c0.44,1.662,4.422,2.074,9.193,1.063l0.362,1.367 C106.548,218.891,104.498,222.068,101.163,222.953z M217.313,192.176l-39.039,10.344c-3.334,0.883-6.688-0.863-7.494-3.898 l-0.354-1.336c5.153-1.455,8.896-3.99,8.425-5.766l-3.711-14.006c-0.471-1.773-4.978-2.125-10.175-0.836l-0.354-1.336 c-0.805-3.037,1.246-6.215,4.58-7.098l39.038-10.346c3.334-0.883,6.689,0.863,7.494,3.9l0.362,1.367 c-4.647,1.484-7.901,3.814-7.461,5.475l3.711,14.006c0.44,1.662,4.422,2.074,9.194,1.063l0.362,1.367 C222.698,188.113,220.647,191.291,217.313,192.176z"/>
  </symbol>
  <style>
    use { display: none; }
    use:target { display: inline; }
  </style>
  <use id="swo" color="orange" href="#sword-icon"/>
  <use id="s2h" color="tomato" href="#sword-icon"/>
  <use id="spr" color="dodgerblue" href="#sword-icon"/>
  <use id="axe" color="limegreen" href="#sword-icon"/>
  <use id="whi" color="violet" href="#sword-icon"/>
  <use id="thr" color="cyan" href="#sword-icon"/>
  <use id="arr" color="yellowgreen" href="#sword-icon"/>
  <use id="fis" color="yellow" href="#sword-icon"/>
  <use id="phy" color="orange" href="#phys-icon"/>
  <use id="rus" color="silver" href="#phys-icon"/>
  <use id="gun" color="orange" href="#gun-icon"/>
  <use id="aut" color="tomato" href="#gun-icon"/>
  <use id="sho" color="dodgerblue" href="#gun-icon"/>
  <use id="rif" color="limegreen" href="#gun-icon"/>
  <use id="fir" color="tomato" href="#fire-icon"/>
  <use id="wat" color="dodgerblue" href="#water-icon"/>
  <use id="ice" color="dodgerblue" href="#ice-icon"/>
  <use id="ele" color="yellow" href="#elec-icon"/>
  <use id="for" color="limegreen" href="#force-icon"/>
  <use id="win" color="limegreen" href="#wind-icon"/>
  <use id="ear" color="orange" href="#earth-icon"/>
  <use id="psy" color="violet" href="#psy-icon"/>
  <use id="nuk" color="cyan" href="#nuke-icon"/>
  <use id="lig" color="cornsilk" href="#light-icon"/>
  <use id="smt-dar" color="darkorchid" href="#smt-dark-icon"/>
  <use id="per-dar" color="tomato" href="#skull-icon"/>
  <use id="smt-alm" color="silver" href="#smt-almighty-icon"/>
  <use id="per-alm" color="silver" href="#per-almighty-icon"/>
  <use id="per-ail" color="blueviolet" href="#per-ailment-icon"/>
  <use id="smt-rec" color="cyan" href="#smt-recovery-icon"/>
  <use id="per-rec" color="aquamarine" href="#per-recovery-icon"/>
  <use id="smt-sup" color="teal" href="#smt-support-icon"/>
  <use id="per-sup" color="royalblue" href="#per-support-icon"/>
  <use id="smt-spe" color="yellowgreen" href="#smt-special-icon"/>
  <use id="smt-sab" color="tomato" href="#smt-sabbath-icon"/>
  <use id="per-tra" color="teal" href="#per-passive-icon"/>
  <use id="smt-pas" color="limegreen" href="#smt-passive-icon"/>
  <use id="smt-inn" color="cyan" href="#smt-passive-icon"/>
  <use id="per-pas" color="gold" href="#per-passive-icon"/>
  <use id="poison" color="purple" href="#poison-icon"/>
  <use id="paralyze" color="gold" href="#paralyze-icon"/>
  <use id="panic" color="yellow" href="#panic-icon"/>
  <use id="bind" color="gold" href="#bind-icon"/>
</svg>
