<svg xmlns="http://www.w3.org/2000/svg" width="256px" height="256px">
  <symbol id="sword2h-icon">
    <polygon fill="currentColor" points="224.361,144.748 220.672,133.49 208.503,127.306 177.101,153.717 88.019,22.963 26.029,23.719 27.919,84.953 142.744,182.615 109.295,210.748 112.598,223.916 125.91,228.17 161.174,198.289 207.462,237.658 221.825,238.037 222.959,221.027 190.524,173.42"/>
  </symbol>
  <symbol id="spear-icon">
    <path fill="currentColor" d="M232.277,228.726l-0.646-12.913L123.803,107.661l1.938-23.567 L23.723,25.66L86.676,128l24.536-6.134L219.041,230.34L232.277,228.726z"/>
  </symbol>
  <symbol id="axe-icon">
    <path fill="currentColor" d="M231.48,220.016l2.535-18.838L145.623,35.984 c0,0-0.725,45.646-49.27,45.646c-48.543,0-52.529-38.038-52.529-38.038s-36.227,46.37-5.434,107.231 c30.792,60.86,96.363,61.947,96.363,61.947s-18.113-25.358-0.725-51.08c17.389-25.721,35.502-22.46,35.502-22.46l44.559,77.163 L231.48,220.016z"/>
  </symbol>
  <symbol id="whip-icon">
    <path fill="currentColor" d="M234.842,161.067c0-8.807-7.138-15.943-15.943-15.943 s-15.944,7.137-15.944,15.943c0,3.639,1.232,6.982,3.285,9.666c-7.881,13.354-30.286,47.699-52.269,47.699 c-27.285,0-36.49-24.326-10.19-54.9c26.299-30.572,48.325-43.393,48.325-78.568c0-35.176-46.682-88.432-87.117-52.599 c-34.636,30.693-49.619,86.634-52.88,100.417l-13.526,4.451L21.158,222.05l12.493,13.479l15.122-5.26l32.217-80.215 l-10.136-13.176c4.916-15.308,26.601-79.145,50.571-93.007c27.286-15.779,59.174,20.711,52.27,53.257 c-6.903,32.545-62.132,57.53-61.475,102.239c0.657,44.709,53.914,41.75,74.625,21.367c16.125-15.869,27.863-35.719,32.272-43.732 C227.821,176.882,234.842,169.798,234.842,161.067z"/>
  </symbol>
  <symbol id="thrown-icon">
    <path fill="currentColor" d="M79.351,124.997c8.18-8.443,20.286-20.376,24.354-21.437 c6.35-1.656,42.24,11.319,42.24,11.319s-10.215-28.988-9.387-37.271c0.828-8.282,46.657-67.087,46.657-67.087 s-62.67,41.964-71.229,43.621c-8.558,1.657-38.099-10.767-38.099-10.767s12.423,31.75,12.7,41.412 c0.175,6.147-11.934,18.209-20.772,26.177c-3.585-1.702-7.594-2.658-11.827-2.658c-15.247,0-27.608,12.36-27.608,27.608 c0,15.248,12.361,27.607,27.608,27.607c15.248,0,27.608-12.359,27.608-27.607C81.598,132.036,80.794,128.347,79.351,124.997z  M53.989,147.785c-6.556,0-11.871-5.314-11.871-11.871s5.315-11.871,11.871-11.871c6.557,0,11.872,5.314,11.872,11.871 S60.546,147.785,53.989,147.785z M187.559,155.609c0.828-8.283,46.657-67.088,46.657-67.088s-62.67,41.963-71.229,43.622 c-8.559,1.656-38.099-10.768-38.099-10.768s12.424,31.749,12.699,41.413c0.176,6.146-11.934,18.209-20.772,26.177 c-3.585-1.702-7.594-2.657-11.826-2.657c-15.247,0-27.608,12.359-27.608,27.607s12.361,27.607,27.608,27.607 c15.248,0,27.608-12.359,27.608-27.607c0-3.878-0.803-7.567-2.246-10.916c8.18-8.444,20.286-20.377,24.354-21.438 c6.35-1.656,42.24,11.318,42.24,11.318S186.73,163.891,187.559,155.609z M104.989,225.785c-6.556,0-11.871-5.314-11.871-11.871 s5.315-11.871,11.871-11.871c6.557,0,11.872,5.314,11.872,11.871S111.546,225.785,104.989,225.785z"/>
  </symbol>
  <symbol id="arrow-icon">
    <path fill="currentColor" d="M205.332,71.366c4.29-0.513,6.792-0.668,6.792-0.668 l18.811-15.327l-1.394-15.327l-14.979-2.787l-19.158,16.024c0,0-53.675,7.713-90.974,37.415L83.587,70.698v-20.9L26.459,22.976 l22.294,61.308l21.597-3.135l20.156,22.512c-35.187,37.767-50.461,93.485-50.461,93.485L25.066,212.82l3.135,14.631l13.237,0.696 l15.327-15.675c0,0,0.491-2.167,1.526-5.922h124.338l21.832,24.384l21.597,2.09l3.483-22.294l-24.209-23.227V71.366z  M193.488,73.121v103.02l-75.548-72.483C141.751,84.829,173.603,76.604,193.488,73.121z M61.873,194.707 c6.485-19.806,19.531-52.281,41.299-76.901l68.853,76.901H61.873z"/>
  </symbol>
  <symbol id="fist-icon">
    <path fill="currentColor" d="M192.108,83.491c0,0-15.081-55.087-73.92-55.087 c-60.838,0-90.929,31.712-90.929,80.903s49.372,71.17,49.372,71.17v51.284l97.064-0.697v-65.231c0,0,55.044-37.987,55.044-54.433 C228.74,78.955,192.108,83.491,192.108,83.491z M75.022,76.71c-22.637,23.166-23.637,44.587-23.637,44.587 s-15.373-28.25,8.826-54.19c27.661-29.652,57.778-16.978,57.778-16.978S96.638,54.591,75.022,76.71z"/>
  </symbol>
  <symbol id="hunt-icon">
    <path fill="currentColor" d="M44.295,220.231c-3.136-4.181,19.858-47.73,19.858-47.73 l22.994,27.176l11.845-30.311l22.646,28.916l13.03-27.244l21.321,23.343c0,0,44.734-19.092,44.386-24.667 c-0.349-5.574-36.512-36.581-36.512-36.581l-27.593,20.765l-4.042-35.537l-41.877,29.196L84.5,92.231l-59.018,36.721 c0,0,12.542-88.493,81.176-92.673c68.634-4.181,127.512,123.332,127.861,146.326S175.64,220.58,131.742,222.67 C87.844,224.761,47.43,224.412,44.295,220.231z"/>
  </symbol>
  <symbol id="handgun-icon">
    <path fill="currentColor" d="M210.762,48.921h-76.726l-10.462,9.688H54.598l-8.138-9.688 H31.348l-5.813,9.688l-12.013,6.2v22.863l11.238,6.975l7.75,15.5h78.954v18.476h0.767l-0.565,0.565l34.123,34.123l0.395-0.395 h28.928v58.831h56.576l1.55-151.514L210.762,48.921z M153.65,140.77l-21.436-21.436v-9.187h27.784l15.112,16.275v14.348H153.65z"/>
  </symbol>
  <symbol id="machinegun-icon">
    <path fill="currentColor" d="M225.513,62.906l-8.526-14.921h-22.738l-8.882,15.277h-151.7 v30.198H15.902l-3.908,15.632l4.618,17.409h17.053v21.315h55.611v13.133h0.369l-0.195,0.195l23.049,23.051l0.658-0.658v1.227 h19.628v38.725h52.226v-75.672h20.25l-0.355,33.395h34.106V62.906H225.513z M132.786,167.977h-12.991l-13.944-13.945v-6.217 h26.936V167.977z"/>
  </symbol>
  <symbol id="shotgun-icon">
    <path fill="currentColor" d="M162.962,248.559l58.27-58.27v-22.801L64.917,11.173l-10.894,1.773 l-2.28,12.734l-12.974,5.213l0.013,22.841l14.548,7.854l0.293,25.415l55.136,60.47l30.708,0.746l4.974,16.107l12.16,7.097 l0.454,17.969l-17.225,9.443l0.307,25.655L162.962,248.559z"/>
  </symbol>
  <symbol id="rifle-icon">
    <path fill="currentColor" d="M202.45,132.925l4.15-13.427l-52.243-52.244l-13.183,4.395 l-4.639,14.403l51.755,51.755L202.45,132.925z M168.075,158.844l12.695-2.93l3.417-11.718L51.87,11.878l-11.718,4.395 l-2.686,11.474l52,52l-1.953,16.601l47.361,47.361l-1.465,7.812h-10.253l-8.3,7.324l5.371,10.254l11.23,0.976l19.286,19.287 l0.732,54.761l53.195-0.809l0.244-42.723L167.2,164.947L168.075,158.844z"/>
  </symbol>
  <style>
    use { display: none; }
    use:target { display: inline; }
  </style>
  <use id="s2h" color="tomato" href="#sword2h-icon"/>
  <use id="spr" color="dodgerblue" href="#spear-icon"/>
  <use id="axe" color="limegreen" href="#axe-icon"/>
  <use id="whi" color="violet" href="#whip-icon"/>
  <use id="thr" color="cyan" href="#thrown-icon"/>
  <use id="arr" color="yellowgreen" href="#arrow-icon"/>
  <use id="fis" color="yellow" href="#fist-icon"/>
  <use id="rus" color="silver" href="#hunt-icon"/>
  <use id="han" color="orange" href="#handgun-icon"/>
  <use id="aut" color="tomato" href="#machinegun-icon"/>
  <use id="sho" color="dodgerblue" href="#shotgun-icon"/>
  <use id="rif" color="limegreen" href="#rifle-icon"/>
</svg>
